<?xml version="1.0" encoding="UTF-8" standalone="no"?>
<!-- Created with Inkscape (http://www.inkscape.org/) -->

<svg
   width="120"
   height="202"
   viewBox="0 0 31.749999 53.445835"
   version="1.1"
   id="svg2575"
   inkscape:version="1.2 (dc2aedaf03, 2022-05-15)"
   sodipodi:docname="Archer2Red.svg"
   inkscape:export-filename="/home/francis/Archer2.png"
   inkscape:export-xdpi="96"
   inkscape:export-ydpi="96"
   xmlns:inkscape="http://www.inkscape.org/namespaces/inkscape"
   xmlns:sodipodi="http://sodipodi.sourceforge.net/DTD/sodipodi-0.dtd"
   xmlns="http://www.w3.org/2000/svg"
   xmlns:svg="http://www.w3.org/2000/svg">
  <sodipodi:namedview
     id="namedview2577"
     pagecolor="#ffffff"
     bordercolor="#666666"
     borderopacity="1.0"
     inkscape:pageshadow="2"
     inkscape:pageopacity="0.0"
     inkscape:pagecheckerboard="0"
     inkscape:document-units="mm"
     showgrid="false"
     units="px"
     inkscape:zoom="4.1782178"
     inkscape:cx="60.07346"
     inkscape:cy="101"
     inkscape:window-width="1920"
     inkscape:window-height="1003"
     inkscape:window-x="0"
     inkscape:window-y="0"
     inkscape:window-maximized="1"
     inkscape:current-layer="layer1"
     inkscape:showpageshadow="2"
     inkscape:deskcolor="#d1d1d1" />
  <defs
     id="defs2572" />
  <g
     inkscape:label="Layer 1"
     inkscape:groupmode="layer"
     id="layer1">
    <ellipse
       style="fill:#e4bf8f;fill-opacity:1;stroke:#000000;stroke-width:0.264583;stroke-linejoin:round;stroke-miterlimit:4;stroke-dasharray:none;stroke-opacity:0.94397"
       id="path16723"
       ry="4.1815438"
       rx="1.9674717"
       cy="13.50505"
       cx="10.781582" />
    <path
       style="fill:#885b21;fill-opacity:1;stroke:#000000;stroke-width:0.264583px;stroke-linecap:butt;stroke-linejoin:miter;stroke-opacity:1"
       d="m 14.705742,16.51827 8.462332,-0.875873 0.266114,-0.641198 2.185652,-0.404923 0.111297,1.493321 -2.661652,0.411402 0.02132,0.208725 2.656519,-0.299972 0.0099,0.935064 -2.355867,0.15198 0.244207,0.441344 2.130398,-0.224016 0.02118,0.138031 0.02461,0.765681 -2.061895,0.02738 0.06291,0.815382 1.844943,-0.212945 -0.04003,0.947727 -1.795981,-0.066 -1.012681,-0.584943 -6.61238,-0.175215 -0.0062,1.01374 -1.869354,1.945341 -1.013114,-6.642713 z"
       id="path2685" />
    <path
       style="fill:#b5aec4;stroke:#000000;stroke-width:0.264583px;stroke-linecap:butt;stroke-linejoin:miter;stroke-opacity:1;fill-opacity:1"
       d="m 8.259465,43.354503 c 0,0 0.4732483,1.326224 0.5695336,2.577994 0.096285,1.251773 -0.5140629,5.373854 -0.833669,5.409731 -0.3196058,0.03588 -0.9754528,1.614112 -0.9754528,1.614112 L 1.251168,53.135085 5.1644827,51.34665 c 0,0 -0.5803093,-3.016049 -0.127762,-3.57455 0.452547,-0.558504 1.6411638,-4.502973 1.6411638,-4.502973 z"
       id="path4284" />
    <path
       style="fill:#b5aec4;stroke:#000000;stroke-width:0.264583px;stroke-linecap:butt;stroke-linejoin:miter;stroke-opacity:1;fill-opacity:1"
       d="m 14.923497,43.135915 1.958296,3.137431 c 0,0 -0.738462,2.703852 -0.460689,3.602796 l 0.806102,2.608753 3.052792,0.845674 -1.602576,-2.471396 0.08157,-4.858956 -1.668064,-3.724307 z"
       id="path4480"
       sodipodi:nodetypes="ccscccccc" />
    <path
       style="fill:#885b21;fill-opacity:1;stroke:#000000;stroke-width:0.264583px;stroke-linecap:butt;stroke-linejoin:miter;stroke-opacity:1"
       d="m 11.146618,34.075802 -2.4929995,-0.434951 -5.14981,8.556001 c 0,0 0.3747519,1.69782 3.6823102,1.941586 3.3075583,0.243766 5.9557603,0.268171 7.9099443,-0.383476 1.954183,-0.651645 5.010469,-1.95898 5.010469,-1.95898 l -1.825308,-3.333261 -2.333117,-5.205952 z"
       id="path3747" />
    <path
       style="fill:#f3002d;fill-opacity:1;stroke:#000000;stroke-width:0.264583px;stroke-linecap:butt;stroke-linejoin:miter;stroke-opacity:1"
       d="m 14.331084,22.328303 1.451035,4.770117 0.0029,4.020804 0.163088,2.137545 3.48204,7.140816 -5.701735,1.545886 -2.948168,-5.849572 -3.8342212,5.249727 -1.8996715,-1.536113 3.6072672,-6.166662 0.1944888,-3.197587 c 0,0 0.5767843,-2.086205 -0.4308567,-3.957353 -1.007641,-1.871148 -1.8949557,-1.475007 -1.8949557,-1.475007 l 0.1170173,-9.201743 c 0,0 2.9465033,1.194424 6.6786578,-0.123571"
       id="path2936"
       sodipodi:nodetypes="cccccccccccsccc" />
    <path
       style="fill:#885b21;fill-opacity:1;stroke:#000000;stroke-width:0.264583px;stroke-linecap:butt;stroke-linejoin:miter;stroke-opacity:1"
       d="M 6.5222949,25.010904 2.6900521,20.649856 c 0,0 -1.4409094,-0.263801 -0.9581378,-2.477216 0.4827716,-2.213414 -0.4840239,-0.81754 0.4268216,-1.76547 0.9108456,-0.94793 1.9233872,-0.553726 1.9233872,-0.553726 l 5.3423047,-0.205864 -0.041881,1.448365 -2.4142909,0.333043 0.028215,1.235335 2.396218,-0.59736 L 9.2044,19.319242 6.8168704,19.630156 6.8157327,20.799567 8.8733753,20.432381 8.698259,22.209794 6.7459306,21.876222 Z"
       id="path3607"
       sodipodi:nodetypes="ccssccccccccccccc" />
    <path
       style="fill:#885b21;stroke:#000000;stroke-width:0.264583px;stroke-linecap:butt;stroke-linejoin:miter;stroke-opacity:1;fill-opacity:1"
       d="M 7.365471,34.086725 17.032807,33.982011 16.918928,32.43217 7.5549031,32.635698 Z"
       id="path5299" />
    <path
       style="fill:#b5aec4;fill-opacity:1;stroke:#000000;stroke-width:0.264583px;stroke-linecap:butt;stroke-linejoin:miter;stroke-opacity:1"
       d="m 8.1581141,13.814436 c 0,0 0.193412,-1.642787 3.3605979,-1.488351 3.167185,0.154438 3.087672,-0.233259 2.874143,-0.673878 L 14.179327,11.211588 9.6204375,6.761977 8.5147199,12.379951 Z"
       id="path16923"
       sodipodi:nodetypes="csscccc" />
    <circle
       id="path18234"
       style="fill:#b5aec4;stroke:#000000;stroke-width:0.264583"
       cx="25.44961"
       cy="6.9922824"
       r="0.0083689187" />
    <path
       style="fill:none;stroke:#000000;stroke-width:0.264583px;stroke-linecap:butt;stroke-linejoin:miter;stroke-opacity:1"
       d="M 22.078821,35.432389 9.2043998,19.319242 19.224598,2.9211754"
       id="path18536"
       sodipodi:nodetypes="ccc" />
    <path
       style="fill:none;stroke:#885b21;stroke-width:1.32291667;stroke-linecap:butt;stroke-linejoin:miter;stroke-opacity:1;stroke-miterlimit:4;stroke-dasharray:none"
       d="m 19.224598,2.9211754 c 0,0 4.015614,-1.022239 4.850983,7.6302766 1.450694,15.025866 0.04199,17.711256 -1.99676,24.880937"
       id="path17627"
       sodipodi:nodetypes="csc" />
    <path
       style="fill:#b5aec4;fill-opacity:1;stroke:#000000;stroke-width:0.264583px;stroke-linecap:butt;stroke-linejoin:miter;stroke-opacity:1"
       d="m 6.9964709,18.664323 21.5054361,-6.1706 -2.882067,2.102553 -0.628266,-2.028656 3.510333,-0.0739"
       id="path18816"
       sodipodi:nodetypes="ccccc" />
  </g>
</svg>
