<?xml version="1.0" encoding="UTF-8" standalone="no"?>
<!-- Created with Inkscape (http://www.inkscape.org/) -->

<svg
   width="120"
   height="202"
   viewBox="0 0 31.749999 53.445833"
   version="1.1"
   id="svg1007"
   inkscape:version="1.2 (dc2aedaf03, 2022-05-15)"
   sodipodi:docname="Sword2-d2.svg"
   inkscape:export-filename="Sword2-d2.png"
   inkscape:export-xdpi="96"
   inkscape:export-ydpi="96"
   xmlns:inkscape="http://www.inkscape.org/namespaces/inkscape"
   xmlns:sodipodi="http://sodipodi.sourceforge.net/DTD/sodipodi-0.dtd"
   xmlns="http://www.w3.org/2000/svg"
   xmlns:svg="http://www.w3.org/2000/svg">
  <sodipodi:namedview
     id="namedview1009"
     pagecolor="#ffffff"
     bordercolor="#666666"
     borderopacity="1.0"
     inkscape:showpageshadow="2"
     inkscape:pageopacity="0.0"
     inkscape:pagecheckerboard="0"
     inkscape:deskcolor="#d1d1d1"
     inkscape:document-units="mm"
     showgrid="false"
     inkscape:zoom="3.960396"
     inkscape:cx="-34.0875"
     inkscape:cy="100.7475"
     inkscape:window-width="1920"
     inkscape:window-height="1003"
     inkscape:window-x="0"
     inkscape:window-y="0"
     inkscape:window-maximized="1"
     inkscape:current-layer="layer1"
     showguides="true">
    <sodipodi:guide
       position="-44.760884,53.713062"
       orientation="0,-1"
       id="guide6428"
       inkscape:locked="false" />
  </sodipodi:namedview>
  <defs
     id="defs1004" />
  <g
     inkscape:label="Layer 1"
     inkscape:groupmode="layer"
     id="layer1">
    <path
       style="fill:#8ab4ff;fill-opacity:1;stroke:#000000;stroke-width:0.304758px;stroke-linecap:butt;stroke-linejoin:miter;stroke-opacity:1"
       d="m 18.709483,19.651612 c 0,0 -1.250442,-1.943912 -2.337089,-2.029522 -1.086646,-0.08561 -2.60214,1.227765 -2.837905,1.588993 -0.235763,0.361227 -1.552089,4.05831 -2.964909,7.627306 -0.7064104,1.784499 -1.2506548,3.894806 0.0086,5.543461 -2.82836,0.980823 -4.3170954,2.54535 -5.4145759,3.585973 -2.194965,2.081249 -4.55608598,2.391429 -4.55608598,2.391429 0,0 1.88446098,1.036061 3.52163298,1.640551 1.637178,0.604488 7.3920839,-4.566207 7.3920839,-4.566207 0,0 3.402115,5.146122 4.656605,5.857123 1.254486,0.711007 3.646805,-1.64664 3.872756,-2.283649 0.225951,-0.637007 1.790201,-5.621411 1.864351,-6.797514 0.07414,-1.176104 2.819603,-9.290319 2.117377,-11.299424 -0.702225,-2.009102 -2.822033,-3.201103 -2.822033,-3.201103 z"
       id="path6371"
       sodipodi:nodetypes="cssscscscsscscc" />
    <path
       style="fill:#b5aec4;fill-opacity:1;stroke:#000000;stroke-width:0.304758px;stroke-linecap:butt;stroke-linejoin:miter;stroke-opacity:1"
       d="m 12.993199,37.577954 c -0.561152,1.229061 -1.978423,4.205035 -1.978423,4.205035 l -0.950189,7.111399 -1.8818879,4.709168 3.4300489,-3.374771 c 0,0 1.712426,-3.682622 2.16417,-5.606898 0.317195,-1.351153 0.299126,-4.133367 0.299126,-4.133367 l 1.307242,-1.840281 2.57049,-2.553126 4.283452,5.276158 -2.079567,6.269179 0.03086,4.468504 5.657308,0.415181 -3.915423,-1.973507 0.0079,-2.648953 2.896397,-6.077168 -2.110119,-6.172171 -2.623779,-3.583346 c 0,0 -4.30768,-0.683525 -6.659156,-0.218441 -0.766405,2.323056 0.112775,4.498344 -0.44837,5.727405 z"
       id="path1074"
       sodipodi:nodetypes="zccccscccccccccccccz" />
    <path
       style="fill:#b5aec4;fill-opacity:1;stroke:#000000;stroke-width:0.304758px;stroke-linecap:butt;stroke-linejoin:miter;stroke-opacity:1"
       d="m 21.189387,18.218901 -1.088107,-1.290926 -3.048684,-0.111384 -0.757577,1.488413 0.357963,0.974404 4.369318,0.01947 z"
       id="path6390" />
    <path
       style="fill:#005bff;fill-opacity:1;stroke:#000000;stroke-width:0.304758px;stroke-linecap:butt;stroke-linejoin:miter;stroke-opacity:1"
       d="m 21.581534,38.239134 -7.145663,0.08369 c 0,0 1.657352,-2.760509 0.5867,-5.005628 C 13.951919,31.072082 13.88822,31.1466 13.88822,31.1466 l -0.327021,-4.160854 0.572783,-3.295323 c 0,0 1.07737,-0.059 1.487428,-1.470802 1.323676,-4.557302 -1.390953,-3.529114 2.688563,-3.559943 4.079512,-0.03085 4.255647,0.465054 4.255647,0.465054 0,0 0.245329,0.597499 0.602207,3.65109 0.356877,3.053592 0.204759,4.456558 -1.128733,6.110635 -3.056032,3.790728 -0.457561,9.352681 -0.45756,9.352681 z"
       id="path3968"
       sodipodi:nodetypes="ccscccsscsscc" />
    <path
       style="fill:#b5aec4;fill-opacity:1;stroke:#000000;stroke-width:0.304758px;stroke-linecap:butt;stroke-linejoin:miter;stroke-opacity:1"
       d="m 20.252983,25.4303 4.937529,-6.169025 5.365086,6.317151 -5.108277,13.072364 z"
       id="path6459" />
    <path
       style="fill:#d0c7de;fill-opacity:1;stroke:#000000;stroke-width:0.304758px;stroke-linecap:butt;stroke-linejoin:miter;stroke-opacity:1"
       d="m 18.878994,30.412294 -0.774852,0.186834 -0.0925,-0.727656 1.782076,-2.635003 -1.718155,-1.52811 0.529658,-0.448928 1.59093,1.045591 11.026763,-15.173795 -9.678482,15.827965 1.508309,1.238613 -0.950918,0.807706 -1.225129,-0.906467 z"
       id="path6443" />
    <path
       style="fill:#b5aec4;fill-opacity:1;stroke:#000000;stroke-width:0.304758px;stroke-linecap:butt;stroke-linejoin:miter;stroke-opacity:1"
       d="m 16.115802,18.625472 c 0.288743,3.877569 -1.037358,5.573694 -1.485001,6.019981 -0.447643,0.446286 -1.80972,2.256557 -1.80972,2.256557 l 5.903898,1.279132 c 0,0 -1.159869,0.31744 0.265216,-0.151879 1.425083,-0.469318 1.551106,0.535994 1.551106,0.535994 l -0.337222,1.052913 -1.070046,0.685032 -0.770728,-0.655522 -5.543604,-0.879629 c 0,0 -3.7377369,1.349877 -2.476467,-0.922226 1.261271,-2.2721 2.270843,-8.011094 2.270843,-8.011094 0,0 -0.136536,-3.301535 3.501725,-1.209259 z"
       id="path6380" />
    <path
       style="fill:#b5aec4;fill-opacity:1;stroke:#000000;stroke-width:0.304758px;stroke-linecap:butt;stroke-linejoin:miter;stroke-opacity:1"
       d="m 15.656352,16.831372 0.957492,-1.177653 c 0,0 -0.33756,-2.270444 0.207752,-3.195152 0.545311,-0.924708 2.695472,-2.264783 2.695472,-2.264783 0,0 1.217963,1.069784 1.575707,1.788035 0.357742,0.718256 0.191745,3.900401 0.191745,3.900401 l -0.488311,1.21037 z"
       id="path6401" />
    <path
       style="fill:none;stroke:#000000;stroke-width:0.304758px;stroke-linecap:butt;stroke-linejoin:miter;stroke-opacity:1"
       d="m 21.375788,13.412022 -1.914457,-0.07314"
       id="path6413" />
    <ellipse
       style="fill:#005bff;fill-opacity:1;stroke:none;stroke-width:1.5239;stroke-linejoin:round;stroke-dasharray:none"
       id="path6528"
       cx="-25.323763"
       cy="26.313271"
       rx="1.9866627"
       ry="1.9900396"
       transform="scale(-1,1)" />
  </g>
</svg>
